# xmcd
#
# Track frame offsets:
#	150
#	16487
#	30910
#	44887
#	58140
#	73517
#	87620
#	102745
#	116255
#	131995
#	144992
#	164725
#	186092
#	200120
#	210520
#	235534
#
# Disc length: 3152 seconds
#
# Revision: 1
# Processed by: cddbd v1.5.2PL0 Copyright (c) Steve Scherf et al.
# Submitted via: audiograbber 1.83.01
#
DISCID=f20c4e10
DTITLE=Various Artist - Karaoke Spotlight Series: 70's Male Country Hits: Vol.1
DYEAR=1900
DGENRE=Karaoke
TTITLE0=Gary Stewart - She's Actin' Single (I'm Drinking Doubles)
TTITLE1=Ronnie Milsap - (I'm a) Stand By My Woman Man
TTITLE2=Johnny Cash - Man In Black
TTITLE3=Jerry Reed - Amos Moses
TTITLE4=Conway Twitty - Fifeteen Years Ago
TTITLE5=Mickey Gilley - I Overlooked an Orchid
TTITLE6=Charlie Rich - Every Time You Touch Me (I Get High)
TTITLE7=Don Williams - (Turn Out the Light and) Love Me Tonight
TTITLE8=Merle Haggard - If We're Not Back In Love By Monday
TTITLE9=Roy Clark - Thank God and Greyhound
TTITLE10=T.G. Sheppard - Last Cheater's Waltz
TTITLE11=Marty Robbins - El Paso City
TTITLE12=Statler Brothers - Do You Remember These
TTITLE13=Willie Nelson - If You've Got the Money I've Got the Time
TTITLE14=Charley Pride - Hope You're Feelin' Me (Like I'm Feelin' You)
TTITLE15=Data Track - Data Track
EXTD=
EXTT0=
EXTT1=
EXTT2=
EXTT3=
EXTT4=
EXTT5=
EXTT6=
EXTT7=
EXTT8=
EXTT9=
EXTT10=
EXTT11=
EXTT12=
EXTT13=
EXTT14=
EXTT15=
PLAYORDER=
